<svg height="3486" width="720" xmlns="http://www.w3.org/2000/svg">
<rect height="3486" fill="#555" width="720"></rect>
<text fill="#7f7" font-family="Courier New" font-size="12" xml:space="preserve">
<tspan x="10" y="26">156 megabytes installed</tspan>
<tspan x="10" y="42"></tspan>
<tspan x="10" y="58">node_modules</tspan>
<tspan x="10" y="74">└─┬ tape-run@3.0.0 </tspan>
<tspan x="10" y="90">  ├─┬ @juliangruber/tap-finished@0.0.2 </tspan>
<tspan x="10" y="106">  │ ├─┬ once@1.4.0 </tspan>
<tspan x="10" y="122">  │ │ └── wrappy@1.0.2 </tspan>
<tspan x="10" y="138">  │ └─┬ tap-parser@0.2.1 </tspan>
<tspan x="10" y="154">  │   └─┬ split@0.1.2 </tspan>
<tspan x="10" y="170">  │     └── through@1.1.2 </tspan>
<tspan x="10" y="186">  ├─┬ browser-run@4.0.2 </tspan>
<tspan x="10" y="202">  │ ├─┬ browser-launcher@1.0.0 </tspan>
<tspan x="10" y="218">  │ │ ├── headless@0.1.3 </tspan>
<tspan x="10" y="234">  │ │ ├── merge@1.0.0 </tspan>
<tspan x="10" y="250">  │ │ ├── mkdirp@0.3.5 </tspan>
<tspan x="10" y="266">  │ │ └─┬ plist@0.2.1 </tspan>
<tspan x="10" y="282">  │ │   └── sax@0.1.5 </tspan>
<tspan x="10" y="298">  │ ├── duplexer@0.1.1 </tspan>
<tspan x="10" y="314">  │ ├─┬ ecstatic@2.1.0 </tspan>
<tspan x="10" y="330">  │ │ ├── he@0.5.0 </tspan>
<tspan x="10" y="346">  │ │ ├── mime@1.3.4 </tspan>
<tspan x="10" y="362">  │ │ ├── minimist@1.2.0 </tspan>
<tspan x="10" y="378">  │ │ └── url-join@1.1.0 </tspan>
<tspan x="10" y="394">  │ ├─┬ electron-stream@5.0.3 </tspan>
<tspan x="10" y="410">  │ │ ├─┬ debug@2.6.3 </tspan>
<tspan x="10" y="426">  │ │ │ └── ms@0.7.2 </tspan>
<tspan x="10" y="442">  │ │ ├─┬ electron@1.6.5 </tspan>
<tspan x="10" y="458">  │ │ │ ├─┬ electron-download@3.3.0 </tspan>
<tspan x="10" y="474">  │ │ │ │ ├─┬ fs-extra@0.30.0 </tspan>
<tspan x="10" y="490">  │ │ │ │ │ ├── graceful-fs@4.1.11 </tspan>
<tspan x="10" y="506">  │ │ │ │ │ ├── jsonfile@2.4.0 </tspan>
<tspan x="10" y="522">  │ │ │ │ │ ├── klaw@1.3.1 </tspan>
<tspan x="10" y="538">  │ │ │ │ │ ├── path-is-absolute@1.0.1 </tspan>
<tspan x="10" y="554">  │ │ │ │ │ └─┬ rimraf@2.6.1 </tspan>
<tspan x="10" y="570">  │ │ │ │ │   └─┬ glob@7.1.1 </tspan>
<tspan x="10" y="586">  │ │ │ │ │     ├── fs.realpath@1.0.0 </tspan>
<tspan x="10" y="602">  │ │ │ │ │     ├── inflight@1.0.6 </tspan>
<tspan x="10" y="618">  │ │ │ │ │     └─┬ minimatch@3.0.3 </tspan>
<tspan x="10" y="634">  │ │ │ │ │       └─┬ brace-expansion@1.1.7 </tspan>
<tspan x="10" y="650">  │ │ │ │ │         ├── balanced-match@0.4.2 </tspan>
<tspan x="10" y="666">  │ │ │ │ │         └── concat-map@0.0.1 </tspan>
<tspan x="10" y="682">  │ │ │ │ ├── home-path@1.0.5 </tspan>
<tspan x="10" y="698">  │ │ │ │ ├── minimist@1.2.0 </tspan>
<tspan x="10" y="714">  │ │ │ │ ├─┬ nugget@2.0.1 </tspan>
<tspan x="10" y="730">  │ │ │ │ │ ├── minimist@1.2.0 </tspan>
<tspan x="10" y="746">  │ │ │ │ │ ├─┬ pretty-bytes@1.0.4 </tspan>
<tspan x="10" y="762">  │ │ │ │ │ │ ├── get-stdin@4.0.1 </tspan>
<tspan x="10" y="778">  │ │ │ │ │ │ └─┬ meow@3.7.0 </tspan>
<tspan x="10" y="794">  │ │ │ │ │ │   ├─┬ camelcase-keys@2.1.0 </tspan>
<tspan x="10" y="810">  │ │ │ │ │ │   │ └── camelcase@2.1.1 </tspan>
<tspan x="10" y="826">  │ │ │ │ │ │   ├── decamelize@1.2.0 </tspan>
<tspan x="10" y="842">  │ │ │ │ │ │   ├─┬ loud-rejection@1.6.0 </tspan>
<tspan x="10" y="858">  │ │ │ │ │ │   │ ├─┬ currently-unhandled@0.4.1 </tspan>
<tspan x="10" y="874">  │ │ │ │ │ │   │ │ └── array-find-index@1.0.2 </tspan>
<tspan x="10" y="890">  │ │ │ │ │ │   │ └── signal-exit@3.0.2 </tspan>
<tspan x="10" y="906">  │ │ │ │ │ │   ├── map-obj@1.0.1 </tspan>
<tspan x="10" y="922">  │ │ │ │ │ │   ├── minimist@1.2.0 </tspan>
<tspan x="10" y="938">  │ │ │ │ │ │   ├─┬ normalize-package-data@2.3.6 </tspan>
<tspan x="10" y="954">  │ │ │ │ │ │   │ ├── hosted-git-info@2.4.2 </tspan>
<tspan x="10" y="970">  │ │ │ │ │ │   │ ├─┬ is-builtin-module@1.0.0 </tspan>
<tspan x="10" y="986">  │ │ │ │ │ │   │ │ └── builtin-modules@1.1.1 </tspan>
<tspan x="10" y="1002">  │ │ │ │ │ │   │ └─┬ validate-npm-package-license@3.0.1 </tspan>
<tspan x="10" y="1018">  │ │ │ │ │ │   │   ├─┬ spdx-correct@1.0.2 </tspan>
<tspan x="10" y="1034">  │ │ │ │ │ │   │   │ └── spdx-license-ids@1.2.2 </tspan>
<tspan x="10" y="1050">  │ │ │ │ │ │   │   └── spdx-expression-parse@1.0.4 </tspan>
<tspan x="10" y="1066">  │ │ │ │ │ │   ├── object-assign@4.1.1 </tspan>
<tspan x="10" y="1082">  │ │ │ │ │ │   ├─┬ read-pkg-up@1.0.1 </tspan>
<tspan x="10" y="1098">  │ │ │ │ │ │   │ ├── find-up@1.1.2 </tspan>
<tspan x="10" y="1114">  │ │ │ │ │ │   │ └─┬ read-pkg@1.1.0 </tspan>
<tspan x="10" y="1130">  │ │ │ │ │ │   │   ├─┬ load-json-file@1.1.0 </tspan>
<tspan x="10" y="1146">  │ │ │ │ │ │   │   │ ├─┬ parse-json@2.2.0 </tspan>
<tspan x="10" y="1162">  │ │ │ │ │ │   │   │ │ └─┬ error-ex@1.3.1 </tspan>
<tspan x="10" y="1178">  │ │ │ │ │ │   │   │ │   └── is-arrayish@0.2.1 </tspan>
<tspan x="10" y="1194">  │ │ │ │ │ │   │   │ ├── pify@2.3.0 </tspan>
<tspan x="10" y="1210">  │ │ │ │ │ │   │   │ └─┬ strip-bom@2.0.0 </tspan>
<tspan x="10" y="1226">  │ │ │ │ │ │   │   │   └── is-utf8@0.2.1 </tspan>
<tspan x="10" y="1242">  │ │ │ │ │ │   │   └── path-type@1.1.0 </tspan>
<tspan x="10" y="1258">  │ │ │ │ │ │   ├─┬ redent@1.0.0 </tspan>
<tspan x="10" y="1274">  │ │ │ │ │ │   │ ├─┬ indent-string@2.1.0 </tspan>
<tspan x="10" y="1290">  │ │ │ │ │ │   │ │ └─┬ repeating@2.0.1 </tspan>
<tspan x="10" y="1306">  │ │ │ │ │ │   │ │   └── is-finite@1.0.2 </tspan>
<tspan x="10" y="1322">  │ │ │ │ │ │   │ └── strip-indent@1.0.1 </tspan>
<tspan x="10" y="1338">  │ │ │ │ │ │   └── trim-newlines@1.0.0 </tspan>
<tspan x="10" y="1354">  │ │ │ │ │ ├─┬ progress-stream@1.2.0 </tspan>
<tspan x="10" y="1370">  │ │ │ │ │ │ ├── speedometer@0.1.4 </tspan>
<tspan x="10" y="1386">  │ │ │ │ │ │ └─┬ through2@0.2.3 </tspan>
<tspan x="10" y="1402">  │ │ │ │ │ │   └── xtend@2.1.2 </tspan>
<tspan x="10" y="1418">  │ │ │ │ │ ├─┬ request@2.81.0 </tspan>
<tspan x="10" y="1434">  │ │ │ │ │ │ ├── aws-sign2@0.6.0 </tspan>
<tspan x="10" y="1450">  │ │ │ │ │ │ ├── aws4@1.6.0 </tspan>
<tspan x="10" y="1466">  │ │ │ │ │ │ ├── caseless@0.12.0 </tspan>
<tspan x="10" y="1482">  │ │ │ │ │ │ ├─┬ combined-stream@1.0.5 </tspan>
<tspan x="10" y="1498">  │ │ │ │ │ │ │ └── delayed-stream@1.0.0 </tspan>
<tspan x="10" y="1514">  │ │ │ │ │ │ ├── extend@3.0.0 </tspan>
<tspan x="10" y="1530">  │ │ │ │ │ │ ├── forever-agent@0.6.1 </tspan>
<tspan x="10" y="1546">  │ │ │ │ │ │ ├─┬ form-data@2.1.4 </tspan>
<tspan x="10" y="1562">  │ │ │ │ │ │ │ └── asynckit@0.4.0 </tspan>
<tspan x="10" y="1578">  │ │ │ │ │ │ ├─┬ har-validator@4.2.1 </tspan>
<tspan x="10" y="1594">  │ │ │ │ │ │ │ ├─┬ ajv@4.11.7 </tspan>
<tspan x="10" y="1610">  │ │ │ │ │ │ │ │ ├── co@4.6.0 </tspan>
<tspan x="10" y="1626">  │ │ │ │ │ │ │ │ └─┬ json-stable-stringify@1.0.1 </tspan>
<tspan x="10" y="1642">  │ │ │ │ │ │ │ │   └── jsonify@0.0.0 </tspan>
<tspan x="10" y="1658">  │ │ │ │ │ │ │ └── har-schema@1.0.5 </tspan>
<tspan x="10" y="1674">  │ │ │ │ │ │ ├─┬ hawk@3.1.3 </tspan>
<tspan x="10" y="1690">  │ │ │ │ │ │ │ ├── boom@2.10.1 </tspan>
<tspan x="10" y="1706">  │ │ │ │ │ │ │ ├── cryptiles@2.0.5 </tspan>
<tspan x="10" y="1722">  │ │ │ │ │ │ │ ├── hoek@2.16.3 </tspan>
<tspan x="10" y="1738">  │ │ │ │ │ │ │ └── sntp@1.0.9 </tspan>
<tspan x="10" y="1754">  │ │ │ │ │ │ ├─┬ http-signature@1.1.1 </tspan>
<tspan x="10" y="1770">  │ │ │ │ │ │ │ ├── assert-plus@0.2.0 </tspan>
<tspan x="10" y="1786">  │ │ │ │ │ │ │ ├─┬ jsprim@1.4.0 </tspan>
<tspan x="10" y="1802">  │ │ │ │ │ │ │ │ ├── assert-plus@1.0.0 </tspan>
<tspan x="10" y="1818">  │ │ │ │ │ │ │ │ ├── extsprintf@1.0.2 </tspan>
<tspan x="10" y="1834">  │ │ │ │ │ │ │ │ ├── json-schema@0.2.3 </tspan>
<tspan x="10" y="1850">  │ │ │ │ │ │ │ │ └── verror@1.3.6 </tspan>
<tspan x="10" y="1866">  │ │ │ │ │ │ │ └─┬ sshpk@1.13.0 </tspan>
<tspan x="10" y="1882">  │ │ │ │ │ │ │   ├── asn1@0.2.3 </tspan>
<tspan x="10" y="1898">  │ │ │ │ │ │ │   ├── assert-plus@1.0.0 </tspan>
<tspan x="10" y="1914">  │ │ │ │ │ │ │   ├── bcrypt-pbkdf@1.0.1 </tspan>
<tspan x="10" y="1930">  │ │ │ │ │ │ │   ├─┬ dashdash@1.14.1 </tspan>
<tspan x="10" y="1946">  │ │ │ │ │ │ │   │ └── assert-plus@1.0.0 </tspan>
<tspan x="10" y="1962">  │ │ │ │ │ │ │   ├── ecc-jsbn@0.1.1 </tspan>
<tspan x="10" y="1978">  │ │ │ │ │ │ │   ├─┬ getpass@0.1.6 </tspan>
<tspan x="10" y="1994">  │ │ │ │ │ │ │   │ └── assert-plus@1.0.0 </tspan>
<tspan x="10" y="2010">  │ │ │ │ │ │ │   ├── jodid25519@1.0.2 </tspan>
<tspan x="10" y="2026">  │ │ │ │ │ │ │   ├── jsbn@0.1.1 </tspan>
<tspan x="10" y="2042">  │ │ │ │ │ │ │   └── tweetnacl@0.14.5 </tspan>
<tspan x="10" y="2058">  │ │ │ │ │ │ ├── is-typedarray@1.0.0 </tspan>
<tspan x="10" y="2074">  │ │ │ │ │ │ ├── isstream@0.1.2 </tspan>
<tspan x="10" y="2090">  │ │ │ │ │ │ ├─┬ mime-types@2.1.15 </tspan>
<tspan x="10" y="2106">  │ │ │ │ │ │ │ └── mime-db@1.27.0 </tspan>
<tspan x="10" y="2122">  │ │ │ │ │ │ ├── oauth-sign@0.8.2 </tspan>
<tspan x="10" y="2138">  │ │ │ │ │ │ ├── performance-now@0.2.0 </tspan>
<tspan x="10" y="2154">  │ │ │ │ │ │ ├── qs@6.4.0 </tspan>
<tspan x="10" y="2170">  │ │ │ │ │ │ ├── safe-buffer@5.0.1 </tspan>
<tspan x="10" y="2186">  │ │ │ │ │ │ ├── stringstream@0.0.5 </tspan>
<tspan x="10" y="2202">  │ │ │ │ │ │ ├─┬ tough-cookie@2.3.2 </tspan>
<tspan x="10" y="2218">  │ │ │ │ │ │ │ └── punycode@1.4.1 </tspan>
<tspan x="10" y="2234">  │ │ │ │ │ │ ├── tunnel-agent@0.6.0 </tspan>
<tspan x="10" y="2250">  │ │ │ │ │ │ └── uuid@3.0.1 </tspan>
<tspan x="10" y="2266">  │ │ │ │ │ ├─┬ single-line-log@1.1.2 </tspan>
<tspan x="10" y="2282">  │ │ │ │ │ │ └─┬ string-width@1.0.2 </tspan>
<tspan x="10" y="2298">  │ │ │ │ │ │   ├── code-point-at@1.1.0 </tspan>
<tspan x="10" y="2314">  │ │ │ │ │ │   ├─┬ is-fullwidth-code-point@1.0.0 </tspan>
<tspan x="10" y="2330">  │ │ │ │ │ │   │ └── number-is-nan@1.0.1 </tspan>
<tspan x="10" y="2346">  │ │ │ │ │ │   └─┬ strip-ansi@3.0.1 </tspan>
<tspan x="10" y="2362">  │ │ │ │ │ │     └── ansi-regex@2.1.1 </tspan>
<tspan x="10" y="2378">  │ │ │ │ │ └── throttleit@0.0.2 </tspan>
<tspan x="10" y="2394">  │ │ │ │ ├─┬ path-exists@2.1.0 </tspan>
<tspan x="10" y="2410">  │ │ │ │ │ └─┬ pinkie-promise@2.0.1 </tspan>
<tspan x="10" y="2426">  │ │ │ │ │   └── pinkie@2.0.4 </tspan>
<tspan x="10" y="2442">  │ │ │ │ ├─┬ rc@1.2.1 </tspan>
<tspan x="10" y="2458">  │ │ │ │ │ ├── deep-extend@0.4.1 </tspan>
<tspan x="10" y="2474">  │ │ │ │ │ ├── ini@1.3.4 </tspan>
<tspan x="10" y="2490">  │ │ │ │ │ ├── minimist@1.2.0 </tspan>
<tspan x="10" y="2506">  │ │ │ │ │ └── strip-json-comments@2.0.1 </tspan>
<tspan x="10" y="2522">  │ │ │ │ ├── semver@5.3.0 </tspan>
<tspan x="10" y="2538">  │ │ │ │ └─┬ sumchecker@1.3.1 </tspan>
<tspan x="10" y="2554">  │ │ │ │   └── es6-promise@4.1.0 </tspan>
<tspan x="10" y="2570">  │ │ │ └─┬ extract-zip@1.6.0 </tspan>
<tspan x="10" y="2586">  │ │ │   ├─┬ concat-stream@1.5.0 </tspan>
<tspan x="10" y="2602">  │ │ │   │ ├─┬ readable-stream@2.0.6 </tspan>
<tspan x="10" y="2618">  │ │ │   │ │ ├── isarray@1.0.0 </tspan>
<tspan x="10" y="2634">  │ │ │   │ │ ├── process-nextick-args@1.0.7 </tspan>
<tspan x="10" y="2650">  │ │ │   │ │ └── util-deprecate@1.0.2 </tspan>
<tspan x="10" y="2666">  │ │ │   │ └── typedarray@0.0.6 </tspan>
<tspan x="10" y="2682">  │ │ │   ├── debug@0.7.4 </tspan>
<tspan x="10" y="2698">  │ │ │   ├─┬ mkdirp@0.5.0 </tspan>
<tspan x="10" y="2714">  │ │ │   │ └── minimist@0.0.8 </tspan>
<tspan x="10" y="2730">  │ │ │   └─┬ yauzl@2.4.1 </tspan>
<tspan x="10" y="2746">  │ │ │     └─┬ fd-slicer@1.0.1 </tspan>
<tspan x="10" y="2762">  │ │ │       └── pend@1.2.0 </tspan>
<tspan x="10" y="2778">  │ │ ├── json-stringify-safe@5.0.1 </tspan>
<tspan x="10" y="2794">  │ │ └─┬ stream-read@1.1.2 </tspan>
<tspan x="10" y="2810">  │ │   └─┬ dezalgo@1.0.3 </tspan>
<tspan x="10" y="2826">  │ │     └── asap@2.0.5 </tspan>
<tspan x="10" y="2842">  │ ├─┬ enstore@1.0.1 </tspan>
<tspan x="10" y="2858">  │ │ └── monotonic-timestamp@0.0.8 </tspan>
<tspan x="10" y="2874">  │ ├─┬ html-inject-script@1.1.0 </tspan>
<tspan x="10" y="2890">  │ │ └─┬ trumpet@1.7.2 </tspan>
<tspan x="10" y="2906">  │ │   ├── duplexer2@0.0.2 </tspan>
<tspan x="10" y="2922">  │ │   ├─┬ html-select@2.3.24 </tspan>
<tspan x="10" y="2938">  │ │   │ ├── cssauron@1.4.0 </tspan>
<tspan x="10" y="2954">  │ │   │ ├── minimist@0.0.10 </tspan>
<tspan x="10" y="2970">  │ │   │ ├── split@0.3.3 </tspan>
<tspan x="10" y="2986">  │ │   │ ├─┬ stream-splicer@1.3.2 </tspan>
<tspan x="10" y="3002">  │ │   │ │ ├── indexof@0.0.1 </tspan>
<tspan x="10" y="3018">  │ │   │ │ ├── readable-wrap@1.0.0 </tspan>
<tspan x="10" y="3034">  │ │   │ │ └── through2@1.1.1 </tspan>
<tspan x="10" y="3050">  │ │   │ └── through2@1.1.1 </tspan>
<tspan x="10" y="3066">  │ │   ├─┬ html-tokenize@1.2.5 </tspan>
<tspan x="10" y="3082">  │ │   │ ├── minimist@0.0.10 </tspan>
<tspan x="10" y="3098">  │ │   │ ├── readable-stream@1.0.34 </tspan>
<tspan x="10" y="3114">  │ │   │ └─┬ through2@0.4.2 </tspan>
<tspan x="10" y="3130">  │ │   │   └─┬ xtend@2.1.2 </tspan>
<tspan x="10" y="3146">  │ │   │     └── object-keys@0.4.0 </tspan>
<tspan x="10" y="3162">  │ │   ├── inherits@2.0.3 </tspan>
<tspan x="10" y="3178">  │ │   ├─┬ readable-stream@1.1.14 </tspan>
<tspan x="10" y="3194">  │ │   │ ├── core-util-is@1.0.2 </tspan>
<tspan x="10" y="3210">  │ │   │ ├── isarray@0.0.1 </tspan>
<tspan x="10" y="3226">  │ │   │ └── string_decoder@0.10.31 </tspan>
<tspan x="10" y="3242">  │ │   └── through2@1.1.1 </tspan>
<tspan x="10" y="3258">  │ ├── phantomjs-stream@1.1.1 </tspan>
<tspan x="10" y="3274">  │ ├── server-destroy@1.0.1 </tspan>
<tspan x="10" y="3290">  │ ├─┬ source-map-support@0.4.14 </tspan>
<tspan x="10" y="3306">  │ │ └── source-map@0.5.6 </tspan>
<tspan x="10" y="3322">  │ ├─┬ xhr-write-stream@0.1.2 </tspan>
<tspan x="10" y="3338">  │ │ ├── concat-stream@0.1.1 </tspan>
<tspan x="10" y="3354">  │ │ └── ordered-emitter@0.1.1 </tspan>
<tspan x="10" y="3370">  │ └── xtend@4.0.1 </tspan>
<tspan x="10" y="3386">  ├─┬ optimist@0.6.1 </tspan>
<tspan x="10" y="3402">  │ ├── minimist@0.0.5 </tspan>
<tspan x="10" y="3418">  │ └── wordwrap@0.0.3 </tspan>
<tspan x="10" y="3434">  ├── through@2.3.8 </tspan>
<tspan x="10" y="3450">  └─┬ throughout@0.0.0 </tspan>
<tspan x="10" y="3466">    └── duplexer@0.0.4</tspan>
</text>
</svg>
